# xmcd
#
# Track frame offsets: 
#        150
#        18479
#        32153
#        51416
#        63353
#        74185
#        86227
#        98115
#        117760
#        132516
#        143100
#
# Disc length: 2154 seconds
#
# Revision: 2
# Processed by: cddbd v1.5.2PL0 Copyright (c) Steve Scherf et al.
# Submitted via: ExactAudioCopy v0.99pb5
#
DISCID=a708680b
DTITLE=Alan Jackson - Precious Memories - Volume II
DYEAR=2013
DGENRE=Country
TTITLE0=Amazing Grace
TTITLE1=He Lives
TTITLE2=Just as I Am
TTITLE3=Love Lifted Me
TTITLE4=O How I Love Jesus
TTITLE5=Only Trust Him
TTITLE6=There is Power in the Blood
TTITLE7=Precious Memories
TTITLE8=Sweet Hour of Prayer
TTITLE9=When the Roll is Called Up Yonder
TTITLE10=Wherever He Leads I'll Go
EXTD=YEAR: 2013
EXTT0=
EXTT1=
EXTT2=
EXTT3=
EXTT4=
EXTT5=
EXTT6=
EXTT7=
EXTT8=
EXTT9=
EXTT10=
PLAYORDER=
